<?xml version="1.0" encoding="utf-8"?>
<!DOCTYPE svg PUBLIC "-//W3C//DTD SVG 1.1//EN" "http://www.w3.org/Graphics/SVG/1.1/DTD/svg11.dtd">
<svg version="1.1" id="Layer_1" xmlns="http://www.w3.org/2000/svg" xmlns:xlink="http://www.w3.org/1999/xlink" x="0px" y="0px"
	 width="1026px" height="1027px" viewBox="0 0 1026 1027" enable-background="new 0 0 1026 1027" xml:space="preserve">
<rect x="2" y="3" fill="none" width="1024" height="1024"/>
<g>
	<path d="M334.369,983.664h4.002c3.142,0,5.729,0.822,7.764,2.471c2.054,1.627,3.074,3.969,3.074,7.023
		c0,3.133-1.016,5.531-3.047,7.197c-2.031,1.656-4.656,2.488-7.869,2.488h-3.924V983.664z M336.781,1000.664h0.847
		c1.247,0,2.425-0.129,3.536-0.371c1.11-0.25,2.079-0.664,2.913-1.248c0.821-0.588,1.486-1.357,1.982-2.297
		c0.497-0.934,0.743-2.098,0.743-3.492c0-1.373-0.241-2.547-0.734-3.52c-0.484-0.977-1.16-1.736-2.032-2.283
		c-0.874-0.561-1.837-0.963-2.883-1.227c-1.054-0.254-2.227-0.375-3.525-0.375h-0.847V1000.664z"/>
	<path d="M352.748,997.273c0.033,1.066,0.374,1.996,1.025,2.785c0.666,0.773,1.525,1.156,2.589,1.156
		c0.836,0,1.522-0.182,2.062-0.568c0.538-0.383,1.048-0.963,1.523-1.748l1.951,1.102c-0.566,1.014-1.343,1.813-2.318,2.393
		c-0.99,0.574-2.066,0.863-3.244,0.863c-1.799,0-3.23-0.592-4.305-1.781c-1.063-1.211-1.588-2.701-1.588-4.479
		c0-1.885,0.5-3.424,1.51-4.631c0.99-1.188,2.434-1.781,4.33-1.781c1.848,0,3.238,0.594,4.182,1.781
		c0.956,1.188,1.434,2.707,1.434,4.557v0.352H352.748z M359.592,995.553c-0.143-0.924-0.487-1.654-1.063-2.182
		c-0.572-0.533-1.319-0.805-2.245-0.805c-0.443,0-0.856,0.076-1.241,0.221c-0.384,0.143-0.726,0.348-1.026,0.619
		c-0.297,0.275-0.543,0.588-0.747,0.959c-0.192,0.363-0.325,0.762-0.389,1.188H359.592z"/>
	<path d="M368.688,993.664c-0.342-0.695-0.852-1.043-1.536-1.043c-0.326,0-0.615,0.111-0.872,0.34
		c-0.255,0.229-0.385,0.508-0.385,0.832c0,0.305,0.101,0.564,0.293,0.777c0.2,0.205,0.467,0.406,0.81,0.588
		c0.222,0.105,0.393,0.189,0.513,0.242c0.119,0.063,0.313,0.156,0.59,0.271c0.135,0.066,0.258,0.125,0.357,0.146
		c0.101,0.043,0.176,0.074,0.23,0.109c0.855,0.383,1.531,0.838,2.024,1.346c0.497,0.512,0.747,1.195,0.747,2.039
		c0,1.117-0.408,2.061-1.23,2.822c-0.805,0.75-1.771,1.121-2.897,1.121c-0.464,0-0.908-0.061-1.332-0.188
		c-0.429-0.129-0.83-0.303-1.195-0.543c-0.367-0.221-0.69-0.5-0.971-0.834c-0.28-0.338-0.505-0.701-0.655-1.111l1.973-0.889
		c0.566,1.02,1.287,1.523,2.181,1.523c0.36,0,0.692-0.092,0.998-0.287c0.304-0.197,0.534-0.439,0.679-0.742
		c0.143-0.293,0.174-0.611,0.091-0.967c-0.085-0.344-0.349-0.674-0.796-0.982l-2.258-1.188c-0.389-0.205-0.734-0.408-1.022-0.617
		c-0.292-0.199-0.53-0.416-0.718-0.639c-0.191-0.236-0.33-0.492-0.422-0.768c-0.094-0.275-0.146-0.605-0.146-0.98
		c0-0.969,0.347-1.783,1.033-2.445c0.677-0.682,1.514-1.016,2.51-1.016c1.5,0,2.596,0.697,3.277,2.088L368.688,993.664z"/>
	<path d="M376.965,985.496c0,0.426-0.15,0.789-0.459,1.094c-0.31,0.303-0.688,0.453-1.127,0.453c-0.451,0-0.822-0.15-1.128-0.453
		c-0.31-0.305-0.468-0.668-0.468-1.094c0-0.447,0.158-0.818,0.468-1.141c0.306-0.309,0.677-0.461,1.128-0.461
		c0.439,0,0.817,0.152,1.127,0.461C376.814,984.678,376.965,985.049,376.965,985.496 M376.531,1002.844h-2.309v-11.91h2.309
		V1002.844z"/>
	<path d="M391.447,1002.623c0,2.236-0.432,3.973-1.285,5.217c-0.854,1.219-2.379,1.828-4.562,1.828c-1.69,0-3.074-0.48-4.15-1.453
		c-1.062-0.967-1.608-2.277-1.642-3.949h2.305c0,1.078,0.334,1.904,0.991,2.492c0.655,0.584,1.527,0.877,2.601,0.877
		c1.318,0,2.217-0.387,2.705-1.148c0.488-0.766,0.726-1.84,0.726-3.23v-2.266h-0.05c-0.48,0.713-1.073,1.266-1.777,1.666
		c-0.713,0.4-1.475,0.6-2.297,0.6c-1.779,0-3.18-0.617-4.205-1.855c-1.025-1.246-1.533-2.766-1.533-4.584
		c0-1.713,0.517-3.168,1.559-4.375c1.046-1.236,2.4-1.857,4.08-1.857c1.762,0,3.15,0.803,4.174,2.389h0.05v-2.039h2.312V1002.623z
		 M385.371,1001.215c1.215,0,2.162-0.414,2.842-1.242c0.7-0.848,1.053-1.875,1.053-3.078c0-1.184-0.353-2.197-1.053-3.029
		c-0.68-0.826-1.627-1.244-2.842-1.244c-1.144,0-2.066,0.422-2.768,1.268c-0.685,0.836-1.027,1.838-1.027,3.006
		c0,1.203,0.343,2.225,1.027,3.053C383.305,1000.797,384.228,1001.215,385.371,1001.215"/>
	<path d="M396.754,992.547h0.048c0.338-0.635,0.833-1.115,1.487-1.453c0.647-0.342,1.354-0.51,2.125-0.51
		c0.785,0,1.449,0.121,2.004,0.35c0.543,0.244,0.982,0.582,1.313,1.025c0.336,0.441,0.578,0.979,0.72,1.613
		c0.146,0.635,0.219,1.361,0.219,2.174v7.098h-2.306v-6.816c0-1.172-0.176-2.033-0.513-2.572c-0.345-0.559-1.052-0.834-2.129-0.834
		c-0.393,0-0.728,0.033-0.998,0.111c-0.274,0.076-0.513,0.186-0.718,0.332c-0.205,0.148-0.375,0.311-0.514,0.492
		c-0.133,0.193-0.264,0.391-0.383,0.617c-0.051,0.117-0.102,0.275-0.146,0.455c-0.043,0.188-0.076,0.379-0.109,0.576
		c-0.033,0.195-0.066,0.389-0.079,0.588c-0.015,0.193-0.021,0.352-0.021,0.463v1.119v5.469h-2.309v-11.91h2.309V992.547z"/>
	<path d="M415.073,980.758h2.305v12.164h0.05c1.061-1.559,2.455-2.338,4.18-2.338c1.672,0,3.028,0.621,4.076,1.857
		c1.04,1.207,1.561,2.662,1.561,4.375c0,1.818-0.512,3.338-1.531,4.584c-1.029,1.238-2.434,1.855-4.209,1.855
		c-0.816,0-1.587-0.199-2.295-0.6s-1.301-0.953-1.781-1.666h-0.05v1.854h-2.305V980.758z M421.047,1001.215
		c1.21,0,2.156-0.414,2.842-1.242c0.701-0.848,1.049-1.875,1.049-3.078c0-1.184-0.348-2.197-1.049-3.029
		c-0.686-0.826-1.632-1.244-2.842-1.244c-1.148,0-2.07,0.422-2.771,1.268c-0.681,0.836-1.027,1.838-1.027,3.006
		c0,1.203,0.347,2.225,1.027,3.053C418.977,1000.797,419.898,1001.215,421.047,1001.215"/>
	<polygon points="427.577,990.934 430.271,990.934 434.316,998.494 438.08,990.934 440.673,990.934 430.959,1009.668 
		428.352,1009.668 433.063,1000.816 	"/>
	<path d="M452.31,998.035l-2.203,4.809h-2.589l9.225-19.99l9.229,19.99h-2.593l-2.203-4.809H452.31z M456.742,988.088l-3.435,7.76
		h6.87L456.742,988.088z"/>
	<rect x="467.428" y="980.758" width="2.305" height="22.086"/>
	<rect x="473.117" y="980.758" width="2.309" height="22.086"/>
	<rect x="478.581" y="993.738" width="5.608" height="1.91"/>
	<path d="M493.156,983.074c-0.715-0.316-1.23-0.479-1.531-0.479c-0.496,0-0.861,0.15-1.079,0.471
		c-0.225,0.311-0.374,0.701-0.465,1.156c-0.046,0.338-0.079,0.605-0.089,0.811c-0.008,0.188-0.012,0.459-0.012,0.797v5.104h3.176
		v2.143h-3.176v9.768h-2.307v-9.768h-1.05v-2.143h1.05v-5.797c0-3.121,1.29-4.68,3.872-4.68c0.562,0,1.101,0.105,1.61,0.301V983.074
		z"/>
	<path d="M496.719,992.871h0.074c0.295-0.703,0.723-1.271,1.285-1.674c0.563-0.41,1.231-0.613,2-0.613
		c0.634,0,1.264,0.191,1.898,0.586l-1.052,2.086c-0.376-0.326-0.847-0.48-1.412-0.48c-1.176,0-1.96,0.477-2.353,1.424
		c-0.174,0.441-0.293,0.881-0.351,1.307c-0.059,0.43-0.091,0.926-0.091,1.49v5.848h-2.301v-11.91h2.301V992.871z"/>
	<path d="M504.64,997.273c0.034,1.066,0.372,1.996,1.026,2.785c0.664,0.773,1.528,1.156,2.584,1.156
		c0.844,0,1.527-0.182,2.066-0.568c0.539-0.383,1.043-0.963,1.528-1.748l1.944,1.102c-0.563,1.014-1.335,1.813-2.32,2.393
		c-0.977,0.574-2.063,0.863-3.24,0.863c-1.798,0-3.226-0.592-4.303-1.781c-1.063-1.211-1.595-2.701-1.595-4.479
		c0-1.885,0.506-3.424,1.52-4.631c0.985-1.188,2.429-1.781,4.324-1.781c1.849,0,3.239,0.594,4.179,1.781
		c0.96,1.188,1.436,2.707,1.436,4.557v0.352H504.64z M511.485,995.553c-0.143-0.924-0.493-1.654-1.073-2.182
		c-0.566-0.533-1.314-0.805-2.237-0.805c-0.438,0-0.854,0.076-1.239,0.221c-0.384,0.143-0.727,0.348-1.027,0.619
		c-0.296,0.275-0.546,0.588-0.738,0.959c-0.195,0.363-0.334,0.762-0.4,1.188H511.485z"/>
	<path d="M517.146,997.273c0.037,1.066,0.38,1.996,1.026,2.785c0.664,0.773,1.528,1.156,2.588,1.156
		c0.836,0,1.528-0.182,2.063-0.568c0.537-0.383,1.052-0.963,1.527-1.748l1.949,1.102c-0.572,1.014-1.34,1.813-2.32,2.393
		c-0.986,0.574-2.07,0.863-3.244,0.863c-1.794,0-3.227-0.592-4.307-1.781c-1.061-1.211-1.582-2.701-1.582-4.479
		c0-1.885,0.5-3.424,1.502-4.631c0.99-1.188,2.441-1.781,4.342-1.781c1.84,0,3.234,0.594,4.17,1.781
		c0.96,1.188,1.439,2.707,1.439,4.557v0.352H517.146z M523.995,995.553c-0.143-0.924-0.493-1.654-1.069-2.182
		c-0.576-0.533-1.322-0.805-2.236-0.805c-0.451,0-0.869,0.076-1.248,0.221c-0.385,0.143-0.723,0.348-1.027,0.619
		c-0.296,0.275-0.551,0.588-0.742,0.959c-0.201,0.363-0.334,0.762-0.396,1.188H523.995z"/>
	<rect x="528.148" y="993.738" width="5.605" height="1.91"/>
	<path d="M545.725,1000.99h-0.055c-0.479,0.713-1.068,1.266-1.781,1.666c-0.711,0.4-1.474,0.6-2.293,0.6
		c-1.781,0-3.18-0.617-4.202-1.855c-1.026-1.246-1.536-2.766-1.536-4.584c0-1.713,0.518-3.168,1.564-4.375
		c1.041-1.236,2.393-1.857,4.066-1.857c1.729,0,3.122,0.779,4.182,2.338h0.055v-12.164h2.305v22.086h-2.305V1000.99z
		 M541.951,1001.215c1.219,0,2.162-0.414,2.848-1.242c0.695-0.848,1.051-1.875,1.051-3.078c0-1.184-0.355-2.197-1.051-3.029
		c-0.686-0.826-1.629-1.244-2.848-1.244c-1.139,0-2.062,0.422-2.768,1.268c-0.684,0.836-1.022,1.838-1.022,3.006
		c0,1.203,0.339,2.225,1.022,3.053C539.89,1000.797,540.813,1001.215,541.951,1001.215"/>
	<path d="M551.795,992.408c1.247-1.211,2.771-1.824,4.562-1.824c1.795,0,3.31,0.613,4.533,1.824c1.247,1.227,1.87,2.734,1.87,4.514
		c0,1.781-0.623,3.279-1.87,4.502c-1.224,1.223-2.738,1.832-4.533,1.832c-1.79,0-3.314-0.609-4.562-1.832
		c-1.229-1.223-1.842-2.721-1.842-4.502C549.953,995.143,550.566,993.635,551.795,992.408 M552.253,996.922
		c0,1.098,0.405,2.072,1.202,2.924c0.793,0.818,1.762,1.219,2.901,1.219c1.128,0,2.099-0.4,2.896-1.219
		c0.803-0.852,1.207-1.826,1.207-2.924c0-1.125-0.404-2.098-1.207-2.928c-0.797-0.809-1.768-1.223-2.896-1.223
		c-1.14,0-2.108,0.414-2.901,1.223C552.658,994.824,552.253,995.797,552.253,996.922"/>
	<polygon points="568.966,998.523 572.497,990.283 576.012,998.523 579.497,990.934 582.114,990.934 576.012,1003.256 
		572.497,995.297 568.966,1003.256 562.868,990.934 565.48,990.934 	"/>
	<path d="M585.575,992.547h0.045c0.347-0.635,0.839-1.115,1.495-1.453c0.643-0.342,1.352-0.51,2.123-0.51
		c0.781,0,1.449,0.121,1.996,0.35c0.547,0.244,0.985,0.582,1.314,1.025c0.343,0.441,0.576,0.979,0.727,1.613
		c0.146,0.635,0.213,1.361,0.213,2.174v7.098h-2.305v-6.816c0-1.172-0.17-2.033-0.513-2.572c-0.343-0.559-1.052-0.834-2.129-0.834
		c-0.388,0-0.718,0.033-0.997,0.111c-0.271,0.076-0.51,0.186-0.715,0.332c-0.204,0.148-0.379,0.311-0.516,0.492
		c-0.139,0.193-0.264,0.391-0.389,0.617c-0.043,0.117-0.093,0.275-0.139,0.455c-0.037,0.188-0.074,0.379-0.117,0.576
		c-0.029,0.195-0.054,0.389-0.074,0.588c-0.013,0.193-0.021,0.352-0.021,0.463v1.119v5.469h-2.313v-11.91h2.313V992.547z"/>
	<rect x="596.773" y="980.758" width="2.305" height="22.086"/>
	<path d="M603.127,992.408c1.252-1.211,2.766-1.824,4.561-1.824c1.791,0,3.303,0.613,4.539,1.824
		c1.251,1.227,1.869,2.734,1.869,4.514c0,1.781-0.618,3.279-1.869,4.502c-1.236,1.223-2.748,1.832-4.539,1.832
		c-1.795,0-3.309-0.609-4.561-1.832c-1.236-1.223-1.846-2.721-1.846-4.502C601.281,995.143,601.891,993.635,603.127,992.408
		 M603.59,996.922c0,1.098,0.404,2.072,1.202,2.924c0.78,0.818,1.753,1.219,2.896,1.219c1.127,0,2.096-0.4,2.897-1.219
		c0.802-0.852,1.202-1.826,1.202-2.924c0-1.125-0.4-2.098-1.202-2.928c-0.802-0.809-1.771-1.223-2.897-1.223
		c-1.143,0-2.115,0.414-2.896,1.223C603.994,994.824,603.59,995.797,603.59,996.922"/>
	<path d="M627.447,1002.844h-2.308v-1.854h-0.05c-1.022,1.512-2.388,2.266-4.078,2.266c-1.756,0-3.156-0.617-4.207-1.855
		c-1.015-1.246-1.523-2.766-1.523-4.584c0-1.713,0.514-3.168,1.561-4.375c1.045-1.236,2.404-1.857,4.095-1.857
		c1.707,0,3.098,0.779,4.153,2.338h0.05v-1.988h2.308V1002.844z M621.375,1001.215c1.211,0,2.158-0.414,2.843-1.242
		c0.7-0.848,1.048-1.875,1.048-3.078c0-1.184-0.348-2.197-1.048-3.029c-0.685-0.826-1.632-1.244-2.843-1.244
		c-1.148,0-2.07,0.422-2.768,1.268c-0.684,0.836-1.026,1.838-1.026,3.006c0,1.203,0.343,2.225,1.026,3.053
		C619.305,1000.797,620.227,1001.215,621.375,1001.215"/>
	<path d="M639.386,1000.99h-0.055c-0.471,0.713-1.068,1.266-1.773,1.666c-0.706,0.4-1.478,0.6-2.296,0.6
		c-1.777,0-3.177-0.617-4.199-1.855c-1.027-1.246-1.536-2.766-1.536-4.584c0-1.713,0.518-3.168,1.561-4.375
		c1.044-1.236,2.397-1.857,4.074-1.857c1.729,0,3.114,0.779,4.17,2.338h0.055v-12.164h2.313v22.086h-2.313V1000.99z
		 M635.62,1001.215c1.22,0,2.158-0.414,2.847-1.242c0.697-0.848,1.048-1.875,1.048-3.078c0-1.184-0.351-2.197-1.048-3.029
		c-0.688-0.826-1.627-1.244-2.847-1.244c-1.144,0-2.07,0.422-2.767,1.268c-0.685,0.836-1.031,1.838-1.031,3.006
		c0,1.203,0.347,2.225,1.031,3.053C633.55,1000.797,634.477,1001.215,635.62,1001.215"/>
	<path d="M648.306,1001.779c0,0.406-0.143,0.764-0.434,1.043c-0.297,0.287-0.64,0.434-1.052,0.434c-0.41,0-0.766-0.146-1.052-0.434
		c-0.289-0.279-0.439-0.637-0.439-1.043c0-0.395,0.15-0.738,0.439-1.031c0.286-0.295,0.642-0.447,1.052-0.447
		c0.412,0,0.755,0.152,1.052,0.447C648.163,1001.041,648.306,1001.385,648.306,1001.779"/>
	<path d="M660.919,994.33c-0.964-1.074-2.103-1.613-3.443-1.613c-1.102,0-2.054,0.418-2.838,1.254
		c-0.769,0.846-1.152,1.826-1.152,2.924c0,1.24,0.384,2.246,1.152,3.023c0.801,0.801,1.803,1.201,2.997,1.201
		c1.23,0,2.32-0.531,3.284-1.578v2.922c-0.997,0.527-2.095,0.793-3.306,0.793c-1.777,0-3.301-0.605-4.57-1.811
		c-1.24-1.182-1.865-2.672-1.865-4.449c0-1.838,0.625-3.361,1.865-4.588c1.248-1.211,2.817-1.824,4.692-1.824
		c1.234,0,2.291,0.262,3.184,0.789V994.33z"/>
	<path d="M664.167,992.408c1.252-1.211,2.768-1.824,4.566-1.824c1.795,0,3.311,0.613,4.533,1.824
		c1.251,1.227,1.873,2.734,1.873,4.514c0,1.781-0.622,3.279-1.873,4.502c-1.223,1.223-2.738,1.832-4.533,1.832
		c-1.799,0-3.314-0.609-4.566-1.832c-1.224-1.223-1.845-2.721-1.845-4.502C662.322,995.143,662.943,993.635,664.167,992.408
		 M664.635,996.922c0,1.098,0.396,2.072,1.201,2.924c0.781,0.818,1.754,1.219,2.897,1.219c1.127,0,2.087-0.4,2.896-1.219
		c0.802-0.852,1.201-1.826,1.201-2.924c0-1.125-0.399-2.098-1.201-2.928c-0.81-0.809-1.77-1.223-2.896-1.223
		c-1.144,0-2.116,0.414-2.897,1.223C665.03,994.824,664.635,995.797,664.635,996.922"/>
	<path d="M679.469,992.441h0.05c0.348-0.543,0.793-0.988,1.369-1.336c0.572-0.354,1.178-0.521,1.808-0.521
		c1.491,0,2.642,0.701,3.46,2.113c0.38-0.648,0.894-1.156,1.557-1.541c0.647-0.381,1.369-0.572,2.129-0.572
		c2.655,0,3.979,1.715,3.979,5.143v7.117h-2.304v-6.738c0-0.309-0.013-0.607-0.042-0.9c-0.021-0.295-0.066-0.588-0.138-0.867
		c-0.067-0.277-0.172-0.535-0.313-0.781c-0.133-0.234-0.321-0.447-0.563-0.635c-0.306-0.205-0.702-0.301-1.17-0.301
		c-0.488,0-0.894,0.096-1.235,0.301c-0.325,0.188-0.572,0.426-0.755,0.705c-0.185,0.271-0.326,0.631-0.422,1.061
		c-0.101,0.416-0.172,0.807-0.196,1.131c-0.025,0.346-0.037,0.738-0.037,1.178v5.848h-2.3v-6.309c0-0.398-0.018-0.738-0.034-1.01
		c-0.017-0.279-0.066-0.611-0.158-1.021c-0.08-0.443-0.188-0.766-0.325-0.969c-0.143-0.234-0.355-0.451-0.643-0.639
		c-0.293-0.18-0.644-0.275-1.048-0.275c-1.182,0-1.938,0.51-2.28,1.523c-0.158,0.48-0.254,0.928-0.308,1.354
		c-0.051,0.422-0.08,0.922-0.08,1.498v5.848h-2.308v-11.91h2.308V992.441z"/>
	<path d="M280.613,995.818h32.643c0.987,0,0.987-1.512,0-1.512h-32.643C279.628,994.307,279.628,995.818,280.613,995.818"/>
	<path d="M714.936,995.818h32.646c0.984,0,0.984-1.512,0-1.512h-32.646C713.954,994.307,713.954,995.818,714.936,995.818"/>
</g>
<g>
	<path opacity="0.3" fill="#A8DFF6" d="M484.081,727.551c1.643-0.625,3.16-1.242,4.567-1.846c0.111,3.332,0.316,6.563,0.646,9.55
		C486.411,731.066,484.081,727.674,484.081,727.551z"/>
	<path opacity="0.3" fill="#A8DFF6" d="M501.122,718.679c-2.517,2.132-6.444,4.474-12.474,7.026
		c-0.299-9.027,0.091-18.855,0.582-26.741c0.563-9.11,1.284-15.713,1.293-15.713c2.327,5.864,4.373,11.782,6.135,17.735
		C498.4,706.85,499.89,712.761,501.122,718.679z"/>
	<path opacity="0.3" fill="#A8DFF6" d="M489.294,735.255c4.666,6.769,10.779,15.577,10.779,15.773
		c-0.069,0.032-0.145,0.051-0.205,0.084c-0.266,0.103-0.533,0.202-0.789,0.296c-0.031,0.009-0.04,0.009-0.052,0.021
		c-0.012,0.01-0.012,0.01-0.021,0.01C493.252,753.635,490.463,746.063,489.294,735.255z"/>
	<path opacity="0.3" fill="#A8DFF6" d="M556.571,717.313l-53.154-14.482c0.235-2.74,2.84-5.345,12.462-8.164
		c5.969-1.757,9.356-2.749,9.356-2.749L556.571,717.313z"/>
	<g>
		<path opacity="0.42" fill="#ED6992" d="M273.428,751.107c-0.433,0.103-0.866,0.207-1.291,0.301
			C272.333,751.354,272.766,751.252,273.428,751.107z"/>
		<path fill="#181A21" d="M465.388,567.277l14.689,174.309c14.895,24.036,57.318,25.758,73.908,0l13.08-172.205L465.388,567.277z"/>
		<g>
			<path fill="#181A21" d="M156.95,577.331c1.938,1.326,83.991-54.259,83.991-54.259c196.82-13.527,410.491-7.744,646.073,10.833
				l18.092,47.396c-114.662-12.935-255.202-19.932-345.007-27.515c-2.715-0.229-4.338,3.42-6.461,5.266
				c-22.409,19.503-57.727,16.08-80.114-1.323c-1.775-1.385-3.199-4.22-5.369-3.968C402.458,561.369,264.277,565.929,156.95,577.331
				z"/>
			<path fill="#A6ACC8" d="M516.164,518.023c-149.888-139.405-264.969-4.816-365.756-35.253l22.058,32.888L516.164,518.023z"/>
			<path fill="none" stroke="#FFFFFF" stroke-width="6.8706" stroke-miterlimit="10" d="M516.164,518.023
				c-149.888-139.405-263.598-9.262-364.385-39.705"/>
			<path fill="#6C7A87" d="M468.26,547.362c-37.51,5.897-168.921,18.285-345.786,21.936l2.434-5.207
				c0.082,0.012,0.164,0.032,0.244,0.044l-0.009,0.01c7.859,1.367,15.93,2.194,23.85,2.527c2.8,0.124,5.578,0.185,8.326,0.185
				c38.056,0,75.263-10.638,111.51-21.006C332.283,527.703,397.867,508.955,468.26,547.362z"/>
			<path fill="#E5F1E8" d="M125.151,564.135c7.791,1.345,15.921,2.186,23.841,2.537c-7.92-0.333-15.991-1.16-23.85-2.527
				L125.151,564.135z"/>
			<path fill="#E5F1E8" d="M514.875,514.605c-13.909,5.064-25.338,15.197-34.773,29.332c-1.373,2.046-2.697,4.18-3.99,6.396
				c-1.243-0.797-2.748-1.481-4.517-2.048l3.537-6.528c-7.395-4.193-14.728-7.783-22.002-10.814
				c-24.378-10.184-48.097-14.205-71.312-14.375c-39.603-0.301-77.74,10.603-115.159,21.304
				c-47.504,13.59-90.751,26.688-138.11,18.42l21.942-46.986C266.776,529.593,311.146,372.547,514.875,514.605z"/>
			<path fill="#E5F1E8" d="M475.131,541.757l-3.537,6.528c-1.018-0.345-2.12-0.646-3.313-0.913c0-0.01-0.01-0.01-0.022-0.01
				c-70.393-38.407-135.977-19.659-199.432-1.512c-36.247,10.368-73.454,21.006-111.51,21.006c-10.519,0-21.537-0.857-32.176-2.712
				l3.596-7.81c47.361,8.264,90.415-4.874,137.919-18.464C332.565,519.029,400.715,499.538,475.131,541.757z"/>
			<path fill="#A6ACC8" d="M514.872,517.613c166.504-154.256,276.689,3.057,366.827-57.093l-23.11,60.662L514.872,517.613z"/>
			<path fill="none" stroke="#FFFFFF" stroke-width="6.8706" stroke-miterlimit="10" d="M514.872,517.613
				c166.504-154.256,274.252-0.499,364.389-60.647"/>
			<path fill="#6C7A87" d="M908.981,571.697c-173.884-3.6-298.034-25.919-342.827-22.492c69.505-36.734,134.334-18.19,197.078-0.249
				c36.246,10.368,73.455,21.006,111.511,21.006c10.519,0,21.539-0.859,32.178-2.712l-3.598-7.812L908.981,571.697z"/>
			<path fill="#E5F1E8" d="M906.921,567.25c-10.639,1.853-21.659,2.712-32.178,2.712c-38.056,0-75.265-10.638-111.511-21.006
				c-62.744-17.941-127.573-36.485-197.078,0.249c-2.375,0.173-4.527,0.432-6.456,0.765c-1.788,0.31-3.373,0.683-4.769,1.137
				c-8.524-18.479-21.043-31-38.763-35.726c203.727-142.052,248.085,15,364.386-5.298l22.771,49.355L906.921,567.25z"/>
			<g>
				<path fill="#FFFFFF" d="M864.369,530.721c-35.59,0-67.682-13.983-98.896-27.59c-62.738-27.343-127.619-55.62-228.445,19.666
					l-4.761-6.691c46.733-34.894,90.362-51.249,133.391-49.986c38.092,1.116,71.079,15.493,102.981,29.394
					c38.363,16.719,74.176,32.585,116.79,25.147l3.544,7.678C881.194,529.695,871.818,530.721,864.369,530.721z"/>
			</g>
			<g>
				<path fill="#FFFFFF" d="M871.409,548.816c-36.4,0.002-70.709-12.413-104.103-24.5c-64.99-23.516-132.198-47.836-220.993,12.644
					l-4.477-6.892c92.159-62.771,161.299-37.75,228.165-13.558c42.109,15.237,79.643,30.006,123.801,22.297l3.602,7.791
					C888.617,548.132,879.953,548.814,871.409,548.816z"/>
			</g>
			<g>
				<path fill="#FFFFFF" d="M906.921,567.25c-10.639,1.853-21.659,2.712-32.178,2.712c-38.056,0-75.265-10.638-111.511-21.006
					c-62.744-17.941-127.573-36.485-197.078,0.249c-1.766,0.93-3.536,1.893-5.306,2.895l-1.15-2.13l-2.766-5.114
					c74.423-42.216,142.563-22.72,208.474-3.877c47.5,13.583,90.558,26.729,137.917,18.46L906.921,567.25z"/>
			</g>
			<g>
				<path fill="#FFFFFF" d="M167.695,527.615c35.59,0.002,67.681-13.986,98.895-27.588c62.74-27.345,127.619-55.617,228.445,19.664
					l4.762-6.689c-46.734-34.894-90.361-51.249-133.391-49.983c-38.092,1.113-71.08,15.491-102.98,29.393
					c-38.363,16.717-74.18,32.583-116.792,25.148l-3.544,7.675C150.872,526.59,160.246,527.615,167.695,527.615z"/>
			</g>
			<g>
				<path fill="#FFFFFF" d="M160.657,545.713c36.399,0,70.707-12.418,104.099-24.498c64.993-23.521,132.196-47.838,220.996,12.642
					l4.473-6.894c-92.157-62.768-161.295-37.75-228.161-13.553c-42.109,15.237-79.642,30.004-123.805,22.294l-3.599,7.791
					C143.447,545.023,152.113,545.713,160.657,545.713z"/>
			</g>
			<g>
				<path fill="#FFFFFF" d="M480.757,544.297l-3.535,6.542l-6.009-1.843c-0.983-0.557-1.953-1.096-2.931-1.624
					c0-0.01-0.01-0.01-0.022-0.01c-70.393-38.407-135.977-19.659-199.432-1.512c-36.247,10.368-73.454,21.006-111.51,21.006
					c-2.748,0-5.525-0.061-8.326-0.185c-7.92-0.333-15.991-1.16-23.85-2.527l0.009-0.01l3.587-7.8
					c47.361,8.264,90.792-3.581,137.919-18.464c39.571-12.488,77.181-21.936,115.159-21.304
					c23.457,0.396,47.045,4.624,71.312,14.375c8.889,3.56,17.87,7.863,26.973,12.995
					C480.325,544.052,480.535,544.173,480.757,544.297z"/>
			</g>
			<g>
				<path fill="#393D48" d="M554.846,554.865c-2.766,0-5.397-1.662-6.553-4.432c-6.479-15.528-17.966-24.55-31.514-24.745
					c-14.069-0.131-27.578,9.313-34.305,24.246c-1.648,3.66-5.885,5.254-9.452,3.569c-3.571-1.687-5.131-6.02-3.484-9.678
					c9.083-20.167,27.644-32.948,47.445-32.725c19.145,0.274,35.745,12.84,44.407,33.601c1.547,3.702-0.132,7.989-3.749,9.573
					C556.728,554.676,555.778,554.865,554.846,554.865z"/>
			</g>
			<g>
				<path fill="#393D48" d="M923.658,572.744v25.071l-360.96-25.859c-11.426,11.92-27.754,18.729-45.782,18.874
					c-19.74,0.178-37.975-7.604-51.131-21.514L170.172,589.22v-7.919l-63.729,6.261V570.47l370.043-27l4.013,5.153
					c8.502,10.948,21.536,17.208,35.811,17.208h0.402c12.802-0.111,24.439-5.493,31.127-14.405l3.992-5.316L923.658,572.744z"/>
			</g>
		</g>
		<polygon fill="#242632" points="934.47,595.815 803.363,760.356 553.985,741.586 564.757,569.956 		"/>
		<polygon fill="#242632" points="480.077,741.586 465.388,567.277 97.438,593.539 227.176,760.356 		"/>
		<path fill="#C6A042" d="M178.688,587.756l2.071,10.454c-26.737,9.159-40.318,21.062-29.575,45.171l-14.531,4.109l-40.739-53.842
			v-7.984l1.528-0.103v7.975L178.688,587.756z"/>
		<polygon fill="#D8AF55" points="178.69,561.089 178.69,587.756 144.729,590.175 113.863,592.369 95.914,593.653 95.914,567.298 
			124.657,565.146 156.587,562.743 		"/>
		<path fill="#C6A042" d="M853.289,590.187l-2.068,10.454c26.736,9.158,40.315,21.062,29.574,45.17l14.529,4.11l40.744-53.843
			v-7.984l-1.531-0.103v7.976L853.289,590.187z"/>
		<polygon fill="#D8AF55" points="936.07,569.697 936.07,596.071 899.348,593.465 874.71,591.717 862.832,590.869 853.292,590.187 
			853.292,564.111 876.956,565.707 891.452,566.688 916.162,568.354 		"/>
		<path fill="#C6A042" d="M226.813,762.137l45.865-3.068l-3.774-13.862c-23.92,8.847-40.809,3.334-50.436-17.008l-14.771,5
			L226.813,762.137z"/>
		<path fill="#C6A042" d="M804.519,761.274l-45.864-3.065l3.771-13.867c23.923,8.844,40.814,3.336,50.44-17.008l14.771,5.004
			L804.519,761.274z"/>
		<g>
			<path fill="#C6A042" d="M563.195,589.04l-0.943,20.831c-10.605,15.158-37.706,19.486-60.301,15.589
				c-7.334-1.251-14.195-3.386-19.859-6.286c-6.194-3.183-10.964-7.283-13.364-12.208l-1.929-21.558
				c3.527,4.573,8.308,8.356,13.909,11.311c6.113,3.262,13.191,5.541,20.67,6.85C523.675,607.499,549.452,602.751,563.195,589.04z"
				/>
		</g>
		<g>
			<path fill="#C6A042" d="M556.223,709.054l-0.205,7.071c-10.289,14.817-32.422,19.671-51.287,15.806
				c-5.806-1.19-11.292-3.211-16.031-6.022c-4.515-2.654-8.351-6.039-11.118-10.111l-0.627-7.645
				c2.389,3.695,6.326,7.068,11.261,9.859c4.696,2.645,10.288,4.758,16.313,6.072C522.207,727.973,543.511,725.058,556.223,709.054z
				"/>
		</g>
		<g>
			<path fill="#C6A042" d="M560.856,631.193l-2.831,46.015c-9.333,13.479-33.94,17.459-54.361,13.909
				c-6.431-1.109-12.453-2.979-17.458-5.52c-5.281-2.689-9.426-6.133-11.714-10.277l-3.877-45.963
				c3.376,4.378,7.744,8.013,12.779,10.885c5.694,3.26,12.236,5.548,19.12,6.85C523.572,651.104,547.833,645.925,560.856,631.193z"
				/>
		</g>
		<path fill="#EAC271" d="M156.587,562.743c-4.077,9.098-8.206,18.171-11.858,27.432l-30.866,2.194
			c3.858-8.96,7.283-18.104,10.794-27.224L156.587,562.743z"/>
		<path fill="#EAC271" d="M891.452,566.688c-5.681,8.28-11.234,16.638-16.742,25.029l-11.878-0.848l-9.54-0.683v-26.075
			l23.664,1.596L891.452,566.688z"/>
	</g>
	<g opacity="0.5">
		<path fill="#EAC271" d="M501.951,625.46c-7.334-1.251-14.195-3.386-19.859-6.286l-1.384-22.455
			c6.113,3.262,13.191,5.541,20.67,6.85L501.951,625.46z"/>
	</g>
	<g>
		<path fill="#EAC271" d="M503.664,691.117c-6.431-1.109-12.453-2.979-17.458-5.52l-2.812-45.355
			c5.694,3.26,12.236,5.548,19.12,6.85L503.664,691.117z"/>
	</g>
	<g opacity="0.5">
		<path fill="#EAC271" d="M504.73,731.931c-5.806-1.19-11.292-3.211-16.031-6.022l-0.484-7.896
			c4.696,2.645,10.288,4.758,16.313,6.072L504.73,731.931z"/>
	</g>
</g>
</svg>
